<svg viewBox="0 0 200 200" xmlns="http://www.w3.org/2000/svg">
  <defs>
    <linearGradient id="pulseGradient" x1="0%" y1="0%" x2="100%" y2="100%">
      <stop offset="0%" style="stop-color:#10b981;stop-opacity:1" />
      <stop offset="100%" style="stop-color:#059669;stop-opacity:1" />
    </linearGradient>
    <linearGradient id="accentGradient" x1="0%" y1="0%" x2="100%" y2="0%">
      <stop offset="0%" style="stop-color:#3b82f6;stop-opacity:1" />
      <stop offset="100%" style="stop-color:#2563eb;stop-opacity:1" />
    </linearGradient>
  </defs>
  
  <!-- Background Circle -->
  <circle cx="100" cy="100" r="90" fill="url(#pulseGradient)" opacity="0.1"/>
  
  <!-- Pulse Line (Stock Chart Style) -->
  <path d="M 30 100 L 50 100 L 60 70 L 70 110 L 85 60 L 100 100 L 115 85 L 130 120 L 145 90 L 160 95 L 170 95" 
        stroke="url(#accentGradient)" 
        stroke-width="4" 
        fill="none" 
        stroke-linecap="round" 
        stroke-linejoin="round">
    <animate attributeName="stroke-dasharray" 
             from="0 200" 
             to="200 0" 
             dur="2s" 
             repeatCount="indefinite"/>
  </path>
  
  <!-- Heartbeat Pulse (Main Icon) -->
  <path d="M 100 110 L 70 110 L 60 90 L 50 130 L 40 70 L 30 110 L 25 110" 
        stroke="url(#pulseGradient)" 
        stroke-width="5" 
        fill="none" 
        stroke-linecap="round" 
        stroke-linejoin="round"
        opacity="0.7"/>
  
  <path d="M 100 110 L 130 110 L 140 90 L 150 130 L 160 70 L 170 110 L 175 110" 
        stroke="url(#pulseGradient)" 
        stroke-width="5" 
        fill="none" 
        stroke-linecap="round" 
        stroke-linejoin="round"
        opacity="0.7"/>
  
  <!-- Center Pulse Circle -->
  <circle cx="100" cy="110" r="8" fill="url(#accentGradient)">
    <animate attributeName="r" 
             values="8;12;8" 
             dur="1.5s" 
             repeatCount="indefinite"/>
    <animate attributeName="opacity" 
             values="1;0.5;1" 
             dur="1.5s" 
             repeatCount="indefinite"/>
  </circle>
  
  <!-- Rising Arrow (Market Growth) -->
  <path d="M 95 50 L 95 70 M 95 50 L 90 55 M 95 50 L 100 55" 
        stroke="#10b981" 
        stroke-width="3" 
        fill="none" 
        stroke-linecap="round" 
        stroke-linejoin="round">
    <animateTransform attributeName="transform"
                      type="translate"
                      values="0 0; 0 -5; 0 0"
                      dur="1s"
                      repeatCount="indefinite"/>
  </path>
  
  <!-- Data Points -->
  <circle cx="60" cy="70" r="3" fill="#3b82f6" opacity="0.6">
    <animate attributeName="opacity" values="0.6;1;0.6" dur="2s" repeatCount="indefinite"/>
  </circle>
  <circle cx="85" cy="60" r="3" fill="#3b82f6" opacity="0.6">
    <animate attributeName="opacity" values="0.6;1;0.6" dur="2s" begin="0.3s" repeatCount="indefinite"/>
  </circle>
  <circle cx="115" cy="85" r="3" fill="#3b82f6" opacity="0.6">
    <animate attributeName="opacity" values="0.6;1;0.6" dur="2s" begin="0.6s" repeatCount="indefinite"/>
  </circle>
  <circle cx="145" cy="90" r="3" fill="#3b82f6" opacity="0.6">
    <animate attributeName="opacity" values="0.6;1;0.6" dur="2s" begin="0.9s" repeatCount="indefinite"/>
  </circle>
</svg>